# xmcd
#
# Track frame offsets:
#	150
#	11627
#	23415
#	32590
#	44274
#	55504
#	67909
#	79023
#	91380
#	100255
#	112825
#	122897
#
# Disc length: 1766 seconds
#
# Revision: 1
# Processed by: cddbd v1.5.2PL0 Copyright (c) Steve Scherf et al.
# Submitted via: audiograbber 1.83.01
#
DISCID=8306e40c
DTITLE=Various Artist - Single Girl, Songs For Lonely Lovers
DYEAR=2001
DGENRE=Country
TTITLE0=Sandy Posey - Single Girl
TTITLE1=Troy Shondell - This Time
TTITLE2=Jimmy Jones - Handy Man
TTITLE3=Clarence Henry - You Always Hurt The One You Love
TTITLE4=Conway Twitty - It's Only Make  Believe
TTITLE5=Jack Scott - What In The World Comes Over You
TTITLE6=Connie Francis - Among My Souvenirs
TTITLE7=Jimmy Clanton - Just A Dream
TTITLE8=Sandy Posey - Born A Women
TTITLE9=Everly Brothers - Cathy's Clown
TTITLE10=Brenda Lee - I'm Sorry
TTITLE11=Gary Lewis - This  Diamond Ring
EXTD=
EXTT0=
EXTT1=
EXTT2=
EXTT3=
EXTT4=
EXTT5=
EXTT6=
EXTT7=
EXTT8=
EXTT9=
EXTT10=
EXTT11=
PLAYORDER=
